:FULLY-SPECIFIED
:FORCE-ALL-JOINTS-BE-3DOF
:DEGREES
510
root -4.38423 14.8355 -41.4329 3.06859 -9.95267 -7.49308
lfemur -33.502 28.3883 -19.4799
ltibia 66.1262 -0 0
lfoot -25.1588 29.0118 -0.153814
ltoes -2.71824 0 0
rfemur -31.2458 -10.1863 11.503
rtibia 73.9951 -0 0
rfoot -6.58604 -11.8759 0.0295598
rtoes 14.3175 -0 0
lowerback 16.5838 -0.393428 -7.28815
upperback -0.309458 -1.65983 3.18606
thorax -9.38835 -0.357322 8.06534
lowerneck 3.93671 -15.0064 -15.9116
upperneck 2.73731 -21.4904 17.9388
head 4.02135 -10.8558 6.98247
lclavicle 1.57288e-14 -3.97569e-15 0
lhumerus -31.1657 -48.1079 109.618
lradius 88.5358 -0 0
lwrist 43.1518 0 0
lhand -8.73542 45.0075 -0.326717
lfingers 7.12502 -0 0
lthumb 17.1986 74.2533 -0.313478
rclavicle 1.57288e-14 -3.97569e-15 0
rhumerus 44.6426 27.4652 -37.9646
rradius 92.2657 -0 0
rwrist -20.1897 0 0
rhand -3.23695 -16.9783 0.170746
rfingers 7.12502 -0 0
rthumb 22.3936 -44.5877 0.46082
511
root -4.46881 14.8209 -41.4672 2.82148 -13.0756 -7.22126
lfemur -31.5207 27.7216 -18.3173
ltibia 65.6014 -0 0
lfoot -24.8766 28.7452 -0.158937
ltoes -3.89834 0 0
rfemur -32.2159 -10.8566 11.229
rtibia 73.6709 -0 0
rfoot -6.52754 -10.7496 0.0401505
rtoes 14.0937 -0 0
lowerback 16.6289 -0.278853 -7.35887
upperback -0.257489 -1.5376 3.06461
thorax -9.38087 -0.3016 7.94154
lowerneck 3.6257 -14.8378 -15.7977
upperneck 3.13395 -21.2377 17.5401
head 4.09243 -10.712 6.84803
lclavicle 1.57288e-14 -3.97569e-15 0
lhumerus -33.4925 -46.2496 109.84
lradius 89.293 -0 0
lwrist 44.9532 0 0
lhand -9.0832 45.3408 -0.337512
lfingers 7.12502 -0 0
lthumb 16.8639 74.6189 -0.322533
rclavicle 1.57288e-14 -3.97569e-15 0
rhumerus 42.4386 26.5595 -39.5055
rradius 90.1599 -0 0
rwrist -19.3485 0 0
rhand -4.42241 -17.0679 0.201152
rfingers 7.12502 -0 0
rthumb 21.255 -44.7951 0.498909
512
root -4.55338 14.8063 -41.5014 2.54987 -16.1924 -6.92501
lfemur -29.5344 26.9962 -17.1688
ltibia 65.0692 -0 0
lfoot -24.591 28.4748 -0.162709
ltoes -5.09938 0 0
rfemur -33.2057 -11.5368 10.9604
rtibia 73.3359 -0 0
rfoot -6.46549 -9.60438 0.0500497
rtoes 13.856 -0 0
lowerback 16.6734 -0.161614 -7.42914
upperback -0.205152 -1.41184 2.94145
thorax -9.37312 -0.244331 7.81471
lowerneck 3.31261 -14.666 -15.6818
upperneck 3.52875 -20.9781 17.1381
head 4.16213 -10.5657 6.71193
lclavicle 1.57288e-14 -3.97569e-15 0
lhumerus -35.7702 -44.3647 109.947
lradius 90.0633 -0 0
lwrist 46.7732 0 0
lhand -9.43013 45.6783 -0.345837
lfingers 7.12502 -0 0
lthumb 16.5301 74.9885 -0.329075
rclavicle 1.57288e-14 -3.97569e-15 0
rhumerus 40.2532 25.5824 -41.0093
rradius 88.0136 -0 0
rwrist -18.5007 0 0
rhand -5.61993 -17.1725 0.230067
rfingers 7.12502 -0 0
rthumb 20.1047 -45.0193 0.533112
513
root -4.63795 14.7917 -41.5356 2.25207 -19.2964 -6.60227
lfemur -27.5528 26.2156 -16.0423
ltibia 64.5308 -0 0
lfoot -24.303 28.2017 -0.16507
ltoes -6.31641 0 0
rfemur -34.2115 -12.2247 10.6988
rtibia 72.9917 -0 0
rfoot -6.40037 -8.44502 0.059061
rtoes 13.6055 -0 0
lowerback 16.7172 -0.0421338 -7.49862
upperback -0.152682 -1.28299 2.81702
thorax -9.36514 -0.185718 7.68524
lowerneck 2.99868 -14.4916 -15.5646
upperneck 3.92 -20.7126 16.7344
head 4.23013 -10.4175 6.5747
lclavicle 1.57288e-14 -3.97569e-15 0
lhumerus -38.0002 -42.4632 109.947
lradius 90.8437 -0 0
lwrist 48.6051 0 0
lhand -9.77438 46.0192 -0.351582
lfingers 7.12502 -0 0
lthumb 16.1988 75.3611 -0.333022
rclavicle 1.57288e-14 -3.97569e-15 0
rhumerus 38.0962 24.5392 -42.4676
rradius 85.8344 -0 0
rwrist -17.6485 0 0
rhand -6.82508 -17.2914 0.256942
rfingers 7.12502 -0 0
rthumb 18.9471 -45.2592 0.562802
514
root -4.72253 14.7772 -41.5698 1.92616 -22.381 -6.25078
lfemur -25.5848 25.3842 -14.9445
ltibia 63.9874 -0 0
lfoot -24.0138 27.9271 -0.165981
ltoes -7.54446 0 0
rfemur -35.2296 -12.918 10.4456
rtibia 72.6402 -0 0
rfoot -6.33265 -7.27607 0.0670148
rtoes 13.343 -0 0
lowerback 16.76 0.0791623 -7.56702
upperback -0.100309 -1.15151 2.69175
thorax -9.357 -0.125962 7.55356
lowerneck 2.68511 -14.3153 -15.4465
upperneck 4.306 -20.442 16.3303
head 4.2961 -10.268 6.43684
lclavicle 1.57288e-14 -3.97569e-15 0
lhumerus -40.1843 -40.5545 109.846
lradius 91.6311 -0 0
lwrist 50.4421 0 0
lhand -10.1142 46.3628 -0.354673
lfingers 7.12502 -0 0
lthumb 15.8719 75.7356 -0.334324
rclavicle 1.57288e-14 -3.97569e-15 0
rhumerus 35.9762 23.4365 -43.8728
rradius 83.6302 -0 0
rwrist -16.7937 0 0
rhand -8.03345 -17.4238 0.28127
rfingers 7.12502 -0 0
rthumb 17.7864 -45.5135 0.587432
515
root -4.8071 14.7626 -41.604 1.56993 -25.4393 -5.86799
lfemur -23.6386 24.5068 -13.8817
ltibia 63.4401 -0 0
lfoot -23.7246 27.6521 -0.165425
ltoes -8.77855 0 0
rfemur -36.2564 -13.6147 10.2018
rtibia 72.2829 -0 0
rfoot -6.26283 -6.10219 0.0737701
rtoes 13.0696 -0 0
lowerback 16.8016 0.20185 -7.63404
upperback -0.0482611 -1.01782 2.56608
thorax -9.34873 -0.0652673 7.42006
lowerneck 2.37313 -14.1377 -15.3279
upperneck 4.68514 -20.1674 15.9275
head 4.35972 -10.1176 6.29884
lclavicle 1.57288e-14 -3.97569e-15 0
lhumerus -42.3239 -38.6482 109.654
lradius 92.4227 -0 0
lwrist 52.2777 0 0
lhand -10.4476 46.708 -0.355068
lfingers 7.12502 -0 0
lthumb 15.551 76.1111 -0.332969
rclavicle 1.57288e-14 -3.97569e-15 0
rhumerus 33.9007 22.2814 -45.2191
rradius 81.4087 -0 0
rwrist -15.9385 0 0
rhand -9.24059 -17.5689 0.302592
rfingers 7.12502 -0 0
rthumb 16.6268 -45.7809 0.606536
516
root -4.89167 14.748 -41.6382 1.18085 -28.4647 -5.45107
lfemur -21.7215 23.589 -12.859
ltibia 62.8904 -0 0
lfoot -23.4366 27.3777 -0.16341
ltoes -10.0137 0 0
rfemur -37.2882 -14.3123 9.96861
rtibia 71.9216 -0 0
rfoot -6.19137 -4.92799 0.0792157
rtoes 12.7864 -0 0
lowerback 16.842 0.325503 -7.69935
upperback 0.00323786 -0.88238 2.44043
thorax -9.34039 -0.00383596 7.28516
lowerneck 2.06394 -13.9593 -15.2092
upperneck 5.05579 -19.8898 15.5271
head 4.42069 -9.96701 6.1612
lclavicle 1.57288e-14 -3.97569e-15 0
lhumerus -44.4201 -36.7535 109.377
lradius 93.2155 -0 0
lwrist 54.1051 0 0
lhand -10.773 47.054 -0.352754
lfingers 7.12502 -0 0
lthumb 15.2379 76.4864 -0.328978
rclavicle 1.57288e-14 -3.97569e-15 0
rhumerus 31.8762 21.0817 -46.5015
rradius 79.1776 -0 0
rwrist -15.0847 0 0
rhand -10.4421 -17.726 0.320504
rfingers 7.12502 -0 0
rthumb 15.4727 -46.0601 0.619741
517
root -4.97625 14.7334 -41.6725 0.756087 -31.4503 -4.99689
lfemur -19.8403 22.6366 -11.8808
ltibia 62.3393 -0 0
lfoot -23.1509 27.1052 -0.159963
ltoes -11.245 0 0
rfemur -38.3215 -15.0084 9.74686
rtibia 71.5578 -0 0
rfoot -6.11879 -3.75811 0.0832714
rtoes 12.4943 -0 0
lowerback 16.8809 0.449696 -7.76266
upperback 0.0539683 -0.74563 2.31522
thorax -9.33202 0.0581282 7.14927
lowerneck 1.75872 -13.7809 -15.091
upperneck 5.41642 -19.6102 15.1307
head 4.4787 -9.81663 6.02441
lclavicle 1.57288e-14 -3.97569e-15 0
lhumerus -46.4736 -34.8794 109.023
lradius 94.0063 -0 0
lwrist 55.9178 0 0
lhand -11.0885 47.4 -0.347755
lfingers 7.12502 -0 0
lthumb 14.9344 76.8605 -0.322407
rclavicle 1.57288e-14 -3.97569e-15 0
rhumerus 29.9078 19.8457 -47.7162
rradius 76.9448 -0 0
rwrist -14.2345 0 0
rhand -11.6335 -17.8941 0.33466
rfingers 7.12502 -0 0
rthumb 14.3283 -46.3497 0.626766
518
root -5.06082 14.7188 -41.7067 0.292461 -34.3894 -4.50196
lfemur -18.0008 21.6561 -10.9506
ltibia 61.7882 -0 0
lfoot -22.8687 26.8356 -0.155134
ltoes -12.4675 0 0
rfemur -39.3526 -15.7007 9.53728
rtibia 71.1932 -0 0
rfoot -6.04557 -2.59717 0.0858884
rtoes 12.1944 -0 0
lowerback 16.9182 0.574001 -7.82367
upperback 0.103715 -0.608022 2.19089
thorax -9.32367 0.120421 7.01279
lowerneck 1.45867 -13.603 -14.9736
upperneck 5.76549 -19.3297 14.7395
head 4.53345 -9.66706 5.88896
lclavicle 1.57288e-14 -3.97569e-15 0
lhumerus -48.4845 -33.0346 108.601
lradius 94.7923 -0 0
lwrist 57.709 0 0
lhand -11.3922 47.7451 -0.340122
lfingers 7.12502 -0 0
lthumb 14.6422 77.2324 -0.313344
rclavicle 1.57288e-14 -3.97569e-15 0
rhumerus 28.0001 18.5823 -48.8605
rradius 74.718 -0 0
rwrist -13.3897 0 0
rhand -12.8103 -18.0725 0.344779
rfingers 7.12502 -0 0
rthumb 13.1979 -46.6485 0.627428
519
root -5.1454 14.7042 -41.7409 -0.213575 -37.2752 -3.96247
lfemur -16.2083 20.6542 -10.0712
ltibia 61.2383 -0 0
lfoot -22.5911 26.57 -0.148998
ltoes -13.6761 0 0
rfemur -40.3778 -16.3866 9.34041
rtibia 70.8295 -0 0
rfoot -5.9722 -1.44981 0.0870496
rtoes 11.8876 -0 0
lowerback 16.9537 0.69799 -7.88207
upperback 0.152266 -0.470004 2.06786
thorax -9.31538 0.18284 6.87613
lowerneck 1.16497 -13.4263 -14.8573
upperneck 6.10153 -19.0495 14.3547
head 4.58465 -9.51885 5.75533
lclavicle 1.57288e-14 -3.97569e-15 0
lhumerus -50.4522 -31.2273 108.118
lradius 95.5704 -0 0
lwrist 59.4722 0 0
lhand -11.6823 48.0884 -0.329938
lfingers 7.12502 -0 0
lthumb 14.363 77.601 -0.301911
rclavicle 1.57288e-14 -3.97569e-15 0
rhumerus 26.1567 17.3004 -49.9327
rradius 72.5049 -0 0
rwrist -12.5524 0 0
rhand -13.9682 -18.2604 0.350647
rfingers 7.12502 -0 0
rthumb 12.0858 -46.9552 0.621646
520
root -5.22997 14.6897 -41.7751 -0.765931 -40.1007 -3.37422
lfemur -14.4675 19.6379 -9.24465
ltibia 60.6907 -0 0
lfoot -22.3194 26.3097 -0.141645
ltoes -14.866 0 0
rfemur -41.3935 -17.0636 9.15664
rtibia 70.4685 -0 0
rfoot -5.89919 -0.320654 0.0867689
rtoes 11.5749 -0 0
lowerback 16.9872 0.821235 -7.93756
upperback 0.199414 -0.332029 1.94654
thorax -9.30719 0.245178 6.7397
lowerneck 0.878775 -13.2516 -14.7427
upperneck 6.4231 -18.7708 13.9776
head 4.632 -9.37253 5.624
lclavicle 1.57288e-14 -3.97569e-15 0
lhumerus -52.3754 -29.4656 107.582
lradius 96.3376 -0 0
lwrist 61.2005 0 0
lhand -11.9571 48.4291 -0.317317
lfingers 7.12502 -0 0
lthumb 14.0986 77.9652 -0.288259
rclavicle 1.57288e-14 -3.97569e-15 0
rhumerus 24.3808 16.0095 -50.9318
rradius 70.3133 -0 0
rwrist -11.7245 0 0
rhand -15.1026 -18.4569 0.352116
rfingers 7.12502 -0 0
rthumb 10.9964 -47.2684 0.609437
